<svg id="Component_444_1" data-name="Component 444 – 1" xmlns="http://www.w3.org/2000/svg" xmlns:xlink="http://www.w3.org/1999/xlink" width="85.502" height="123.333" viewBox="0 0 85.502 123.333">
  <defs>
    <clipPath id="clip-path">
      <path id="Path_47" data-name="Path 47" d="M77.96,19.371a42.445,42.445,0,0,0-60.463,0C2.552,34.465.7,62.867,13.474,80.075l34.251,49.976,34.2-49.906C94.762,62.867,92.9,34.465,77.96,19.371Z" transform="translate(-4.973 -6.719)" fill="#fff"/>
    </clipPath>
  </defs>
  <g id="Group_41" data-name="Group 41" clip-path="url(#clip-path)">
    <path id="Path_40" data-name="Path 40" d="M116.808,72.281c0,36.75-25.568,66.541-57.107,66.541S2.6,109.031,2.6,72.281,28.161,5.742,59.7,5.742,116.808,35.532,116.808,72.281Z" transform="translate(-16.951 -13.223)" fill="#d9d9d9"/>
    <g id="Group_40" data-name="Group 40" transform="translate(-20.979 17.9)">
      <path id="Path_45" data-name="Path 45" d="M84.193,100.633s1.388-12.152-8.614-17.068L51.781,71.6,35.854,63.438l-1.762-1.483s-3.055-1.67-1.2-7.886l1.945-10.017s1.2-5.658-2.224-9.553L22.983,15.762s-2.317-5.1-2.317-.742c0,0,1.945,31.537,1.2,40.163a17.379,17.379,0,0,0,6.574,15.4C36.5,77.259,50.485,91.08,59.93,97.293l8.333,4.73a26.18,26.18,0,0,0,8.243,1.206l5.093.185S84.563,104.065,84.193,100.633Z" transform="translate(43.2 -13.258)" fill="#fff"/>
      <path id="Path_46" data-name="Path 46" d="M-2.638,100.633S-4.028,88.481,5.974,83.565L29.775,71.6,45.7,63.438l1.758-1.483s3.058-1.67,1.205-7.886L46.722,44.051s-1.2-5.658,2.222-9.553l9.631-18.736s2.315-5.1,2.315-.742c0,0-1.946,31.537-1.205,40.163a17.379,17.379,0,0,1-6.574,15.4c-8.055,6.678-22.041,20.5-31.486,26.713l-8.336,4.73a26.142,26.142,0,0,1-8.241,1.206l-5.093.185S-3.008,104.065-2.638,100.633Z" transform="translate(2.703 -13.258)" fill="#fff"/>
    </g>
  </g>
</svg>
