<svg xmlns="http://www.w3.org/2000/svg" width="46.758" height="63" viewBox="0 0 46.758 63">
  <g id="rating" transform="translate(0 0)">
    <path id="Path_220" data-name="Path 220" d="M32.148,186.3A25.682,25.682,0,0,0,54.3,160.86V142H10v18.86A25.682,25.682,0,0,0,32.148,186.3Zm0,0" transform="translate(-8.769 -124.527)" fill="#fff"/>
    <path id="Path_221" data-name="Path 221" d="M50,182v13.938a20.851,20.851,0,0,0,17.227,20.457,20.851,20.851,0,0,0,17.227-20.457V182Zm0,0" transform="translate(-43.847 -159.605)" fill="#fff"/>
    <path id="Path_223" data-name="Path 223" d="M20.227,13.8a2.353,2.353,0,0,1-1.387-.46,2.323,2.323,0,0,1-.855-2.643l.6-1.828L17.014,7.733A2.359,2.359,0,0,1,18.4,3.462h1.939l.591-1.828a2.36,2.36,0,0,1,4.49,0l.591,1.828h1.939A2.359,2.359,0,0,1,29.33,7.733L27.761,8.868l.6,1.828a2.359,2.359,0,0,1-3.633,2.64L23.172,12.2l-1.554,1.134a2.352,2.352,0,0,1-1.391.462Zm2.944-4.35a1.228,1.228,0,0,1,.725.236l2.025,1.478-.78-2.383A1.23,1.23,0,0,1,25.59,7.4l2.043-1.478H25.113a1.23,1.23,0,0,1-1.171-.852l-.77-2.381L22.4,5.071a1.231,1.231,0,0,1-1.171.852H18.711L20.753,7.4A1.23,1.23,0,0,1,21.2,8.78l-.78,2.383,2.025-1.478a1.228,1.228,0,0,1,.725-.236Zm0,0" transform="translate(-14.059 0)" opacity="0.5"/>
    <path id="Path_225" data-name="Path 225" d="M136.118,13.8a2.354,2.354,0,0,1-1.387-.46,2.323,2.323,0,0,1-.855-2.643l.6-1.828L132.9,7.733a2.359,2.359,0,0,1,1.383-4.271h1.939l.591-1.828a2.359,2.359,0,0,1,4.49,0l.591,1.828h1.939a2.359,2.359,0,0,1,1.382,4.271l-1.569,1.135.6,1.828a2.359,2.359,0,0,1-3.633,2.64L139.063,12.2l-1.554,1.134a2.352,2.352,0,0,1-1.391.462Zm2.944-4.35a1.228,1.228,0,0,1,.725.236l2.025,1.478-.78-2.383a1.23,1.23,0,0,1,.448-1.379l2.043-1.478H141a1.231,1.231,0,0,1-1.171-.852l-.77-2.381-.77,2.381a1.231,1.231,0,0,1-1.171.852H134.6L136.644,7.4a1.23,1.23,0,0,1,.448,1.379l-.78,2.383,2.025-1.478A1.228,1.228,0,0,1,139.063,9.448Zm0,0" transform="translate(-115.69 0)" opacity="0.5"/>
    <path id="Path_227" data-name="Path 227" d="M252.118,13.8a2.354,2.354,0,0,1-1.387-.46,2.323,2.323,0,0,1-.855-2.643l.6-1.828L248.9,7.733a2.359,2.359,0,0,1,1.383-4.271h1.939l.591-1.828a2.359,2.359,0,0,1,4.49,0l.591,1.828h1.939a2.359,2.359,0,0,1,1.382,4.271l-1.569,1.135.6,1.828a2.359,2.359,0,0,1-3.633,2.64L255.063,12.2l-1.554,1.134a2.352,2.352,0,0,1-1.391.462Zm2.944-4.35a1.228,1.228,0,0,1,.725.236l2.025,1.478-.78-2.383a1.23,1.23,0,0,1,.448-1.379l2.043-1.478H257a1.231,1.231,0,0,1-1.171-.852l-.77-2.381-.77,2.381a1.231,1.231,0,0,1-1.171.852H250.6L252.644,7.4a1.23,1.23,0,0,1,.448,1.379l-.78,2.383,2.025-1.478A1.228,1.228,0,0,1,255.063,9.448Zm0,0" transform="translate(-217.417 0)" opacity="0.5"/>
    <path id="Path_228" data-name="Path 228" d="M23.379,178.758a1.246,1.246,0,0,1-.169-.012A26.912,26.912,0,0,1,0,152.091v-18.86A1.23,1.23,0,0,1,1.231,132h17.22a1.23,1.23,0,0,1,0,2.461H2.461v17.629a24.554,24.554,0,0,0,20.918,24.194A24.554,24.554,0,0,0,44.3,152.091V134.461h-16a1.23,1.23,0,1,1,0-2.461H45.528a1.23,1.23,0,0,1,1.23,1.23v18.86a26.912,26.912,0,0,1-23.21,26.656,1.246,1.246,0,0,1-.169.012Zm0,0" transform="translate(0 -115.758)" opacity="0.49"/>
    <path id="Path_229" data-name="Path 229" d="M58.457,208.855a1.225,1.225,0,0,1-.21-.018A22.08,22.08,0,0,1,40,187.168V173.23A1.23,1.23,0,0,1,41.23,172H75.683a1.23,1.23,0,0,1,1.23,1.23v13.938a22.08,22.08,0,0,1-18.248,21.669,1.225,1.225,0,0,1-.21.018Zm-16-34.394v12.707a19.739,19.739,0,0,0,16,19.206,19.739,19.739,0,0,0,16-19.206V174.461Zm0,0" transform="translate(-35.077 -150.836)" opacity="0.51"/>
    <path id="Path_230" data-name="Path 230" d="M119.995,228.545l-14.117,14.117-8.734-8.734,4.544-4.544,4.19,4.19L115.451,224Zm0,0" transform="translate(-85.19 -196.438)" fill="#fff"/>
    <path id="Path_231" data-name="Path 231" d="M97.109,235.122a1.226,1.226,0,0,1-.87-.36L87.5,226.027a1.231,1.231,0,0,1,0-1.74l4.545-4.544a1.23,1.23,0,0,1,1.74,0l3.32,3.32,8.7-8.7a1.231,1.231,0,0,1,1.74,0L112.1,218.9a1.231,1.231,0,0,1,0,1.74l-10.635,10.634-.87-.87.87.87-3.482,3.482a1.226,1.226,0,0,1-.87.36Zm-6.994-9.965,6.994,6.994,12.377-12.377-2.8-2.8-8.7,8.7a1.23,1.23,0,0,1-1.74,0l-3.32-3.32Zm0,0" transform="translate(-76.421 -187.668)" opacity="0.38"/>
    <path id="Path_232" data-name="Path 232" d="M181.23,134.461a1.231,1.231,0,1,1,.87-.36A1.24,1.24,0,0,1,181.23,134.461Zm0,0" transform="translate(-157.851 -115.758)" opacity="0.52"/>
  </g>
</svg>
