<svg xmlns="http://www.w3.org/2000/svg" xmlns:xlink="http://www.w3.org/1999/xlink" width="533" height="266.276" viewBox="0 0 533 266.276">
  <defs>
    <clipPath id="clip-path">
      <rect id="Rectangle_361" data-name="Rectangle 361" width="533" height="266.276" fill="none"/>
    </clipPath>
  </defs>
  <g id="Group_2029" data-name="Group 2029" transform="translate(0 -0.003)">
    <g id="Group_2028" data-name="Group 2028" transform="translate(0 0.003)" clip-path="url(#clip-path)">
      <path id="Path_1372" data-name="Path 1372" d="M3035.485,300.372a26.871,26.871,0,1,1-5.11-37.656,26.871,26.871,0,0,1,5.11,37.656" transform="translate(-2606.713 -224.461)" fill="#fc0"/>
      <path id="Path_1373" data-name="Path 1373" d="M3343.762,114.692a3.694,3.694,0,0,1-5.879-4.474c1.237-1.625,17.015-18.153,17.928-17.458s-10.812,20.306-12.049,21.932" transform="translate(-2912.043 -80.926)" fill="#fc0"/>
      <path id="Path_1374" data-name="Path 1374" d="M2838.465,195.138a3.694,3.694,0,1,1-4.474,5.879c-1.625-1.237-18.152-17.014-17.458-17.927s20.307,10.812,21.931,12.049" transform="translate(-2457.742 -159.723)" fill="#fc0"/>
      <path id="Path_1375" data-name="Path 1375" d="M3449.877,409.919a3.694,3.694,0,1,1-.994-7.32c2.024-.275,24.867-.8,25.021.332s-22,6.714-24.027,6.988" transform="translate(-3006.771 -350.996)" fill="#fc0"/>
      <path id="Path_1376" data-name="Path 1376" d="M2747.8,480.646a3.694,3.694,0,1,1,.993,7.32c-2.024.275-24.867.8-25.021-.332s22-6.714,24.028-6.988" transform="translate(-2376.818 -419.391)" fill="#fc0"/>
      <path id="Path_1377" data-name="Path 1377" d="M3133.692,24.031a3.694,3.694,0,0,1-7.321.993C3126.1,23,3125.567.158,3126.7,0s6.714,22,6.988,24.028" transform="translate(-2727.812 -0.003)" fill="#fc0"/>
      <path id="Path_1378" data-name="Path 1378" d="M500.96,1806.145c0,10.678-112.144,19.335-250.48,19.335S0,1816.824,0,1806.145s112.144-19.335,250.48-19.335,250.48,8.657,250.48,19.335" transform="translate(0 -1559.205)" fill="#00c8ff"/>
      <path id="Path_1379" data-name="Path 1379" d="M1711.485,613.8a7.16,7.16,0,0,1,5.165,2.858c32.3,43.224,40.1,95.42,42.322,148q.017.4.034.807c.093,2.231.622,5.208-1.485,6.728a8.276,8.276,0,0,1-3.2,1.195c-6.176,1.3-26.19,4.273-24.7-7.2,3.8-29.258,5.132-59.841.48-89.082a152.954,152.954,0,0,0-9.111-33.176,144.707,144.707,0,0,0-7.331-15.47c-1.6-2.921-5.965-6.5-6.268-10.052-.285-3.34,1.737-4.735,4.089-4.61" transform="translate(-1489.882 -535.606)" fill="#ffbf00"/>
      <path id="Path_1380" data-name="Path 1380" d="M2092.178,1077.628a162.493,162.493,0,0,1,7.283-29.115c2.737-7.866,5.363-15.766,8.517-23.479,5.469-13.374,12.529-26.378,22.843-36.545-2.021-1.649-2.074-1.042-4.583,1.129-15.17,13.121-28.053,30.267-37.605,49.976a199.691,199.691,0,0,0-13.978,39.4c-1.1,4.489-5.515,16.9-2.972,20.97a2.893,2.893,0,0,0,.411.517,5.965,5.965,0,0,0,3.5,1.39c4.627.733,9.517,2.62,14.239,1.381.2-.052.385-.11.569-.173a164.594,164.594,0,0,1,1.772-25.455" transform="translate(-1807.11 -861.754)" fill="#ffbf00"/>
      <path id="Path_1381" data-name="Path 1381" d="M2211.39,717.721c4.3-20.272,31.057-27.707,49.141-24.249,5.476,1.047,11.463,3.364,14,8.882-14.718,4.148-29.1,10.819-43.986,13.706a42.843,42.843,0,0,1,7.573.768c17.749,3.394,33.791,17.709,31.88,37.083-.3-.26-35.48-26.37-40.476-28.217,12.406,8.26,17.421,24.036,14.686,38.344a39.761,39.761,0,0,1-1.224,4.777c-5.711-12.969-15.583-23.458-22.236-35.788a64.873,64.873,0,0,1-1.062,13.981c-2.059,10.769-7.268,20.993-17.614,25.862-3.955-7.981-5.736-17.82-4.041-26.686a27.9,27.9,0,0,1,7.947-15.161c-12.382.5-24.318,7.228-35.381,5.113-1.212-.232-1.433-2.595-.91-5.328,2.207-11.543,17.491-18.005,28.25-15.948,13.765,2.632-12.012-4.2-21.452-28.794a24.827,24.827,0,0,1,11.116-.32c11.811,2.258,27.781,14.15,25.113,28.1-1.833,9.59-6.5-6.235-4.62-16.049,2.636-13.789,12.89-17.719,15.771-17.168,3.816.73,6.686,11.1,5.229,18.717-1.719,9-8.542,16.724-17.707,18.375" transform="translate(-1893.08 -593.886)" fill="#272769"/>
      <path id="Path_1382" data-name="Path 1382" d="M1277.985,205.086a110.483,110.483,0,0,0,20.776.284c12.365-.892,24.723-3.313,36.739-5.339-9.176-11.283-25.062-17.152-39.991-16.074-16.3,1.176-41.155,19.519,13.1-18.16-3.858-4.051-8.924-5-14.119-4.622-16.193,1.169-34.472,10.271-39.848,27.508-2.456-17.883-27.36-55.169-24.477-15.216.737,10.206,5.154,20.253,13.111,26.889-10.323-7.758-23.073-9.638-35.723-8.725a108.518,108.518,0,0,0-16.273,2.53c7.431,16.276,26.387,23.607,43.739,22.355,28.2-2.035-26.643-4.17-22.919,47.425.488,6.769,32.277-29.208,38.94-37.466a31.335,31.335,0,0,0-2.984,15.666c.717,9.938,7.556,20.84,10.146,20.653,6.645-.48,7.433-46.433,7.451-46.87,8.519,17.178,27.388,27.461,46.24,26.1a45.629,45.629,0,0,0,6.669-.979c-7.564-17.089-24.635-28.066-40.578-35.959" transform="translate(-1039.535 -135.841)" fill="#272769"/>
      <path id="Path_1383" data-name="Path 1383" d="M491.783,1799.148c0,8.28-78.522,14.992-175.384,14.992s-175.384-6.712-175.384-14.992,78.522-14.992,175.384-14.992,175.384,6.712,175.384,14.992" transform="translate(-123.052 -1556.889)" fill="#ffbf00"/>
      <path id="Path_1384" data-name="Path 1384" d="M750.037,1828.492c0,4.959-43.514,8.98-97.19,8.98s-97.191-4.021-97.191-8.98,43.514-8.979,97.191-8.979,97.19,4.02,97.19,8.979" transform="translate(-484.876 -1587.742)" fill="#f90"/>
      <path id="Path_1385" data-name="Path 1385" d="M1435.98,1281.129c-1.264.529-2.634,1.914-2.018,3.39,1.33,3.182,6.216.922,9.609,2.768a67.46,67.46,0,0,1-41.8,8.864,67.474,67.474,0,0,1,18.265-38.632c1.012,3.729-2.311,7.963.477,9.989,1.293.94,2.957-.074,3.764-1.182,2.059-2.83-1.192-6.933-.886-12.07q1.727-1.57,3.585-3.041a67.847,67.847,0,0,1,11.08-7.139c1.818,4.4-3.613,8.589-.921,11.386,1.109,1.153,2.923.447,3.91-.5,2.686-2.582-.293-7.632,1.525-13a67.209,67.209,0,0,1,13.535-4.118c1.6,4.632-4.4,8.337-1.962,11.421.992,1.255,2.867.726,3.942-.124,2.773-2.193.685-7.091,2.453-12a67.854,67.854,0,0,1,15.977-.088,67.744,67.744,0,0,1-3.772,15.524c-5.185.587-9.469-2.574-12.242-.381-1.074.85-2.021,2.552-1.029,3.807,2.439,3.084,7.428-1.9,11.567.727a67.194,67.194,0,0,1-7.129,12.221c-5.643.531-9.87-3.532-13-1.515-1.152.74-2.256,2.344-1.391,3.689,2.1,3.263,7.435-1.057,11.294,1.729a67.854,67.854,0,0,1-9.5,9.137q-1.858,1.469-3.786,2.787c-5.069-.887-8.312-5-11.541-3.646" transform="translate(-1223.209 -1079.1)" fill="#00c8ff"/>
      <path id="Path_1386" data-name="Path 1386" d="M246.846,1240.483c11.3,13.562,22.888,24.445,32.522,31.1-5.234-11.2-14.109-24.894-25.4-38.457s-22.888-24.445-32.522-31.1c5.234,11.2,14.109,24.894,25.4,38.456" transform="translate(-193.234 -1048.912)" fill="#00c8ff"/>
      <path id="Path_1387" data-name="Path 1387" d="M175.8,1379.29c13.226,9.945,25.762,16.777,35.361,19.8-7.809-10.07-19.239-21.258-32.465-31.2s-25.762-16.777-35.361-19.8c7.809,10.07,19.239,21.258,32.465,31.2" transform="translate(-125.075 -1176.367)" fill="#272769"/>
      <path id="Path_1388" data-name="Path 1388" d="M178.906,1602.895c13.265,3.818,24.76,4.54,32.645,2.622a116.945,116.945,0,0,0-35.379-16.954c-13.265-3.817-24.76-4.539-32.645-2.622a116.931,116.931,0,0,0,35.379,16.954" transform="translate(-125.244 -1383.029)" fill="#00c8ff"/>
      <path id="Path_1389" data-name="Path 1389" d="M255.674,1736.83c11.284-2,20.145-6.614,25.365-12.462a67.494,67.494,0,0,0-32.5-2.2c-11.284,2-20.145,6.614-25.366,12.462a67.492,67.492,0,0,0,32.5,2.2" transform="translate(-194.746 -1501.896)" fill="#272769"/>
      <path id="Path_1390" data-name="Path 1390" d="M665.709,1298.482c-2.632,12.39-7.42,21.893-13.042,27.259a92.768,92.768,0,0,1,.457-36.278c2.632-12.39,7.42-21.893,13.042-27.259a92.773,92.773,0,0,1-.457,36.278" transform="translate(-568.158 -1101.423)" fill="#272769"/>
      <path id="Path_1391" data-name="Path 1391" d="M577.164,1185.15c2.428,15.025,2.218,27.853-.085,36.472a147.922,147.922,0,0,1-12.537-40.578c-2.428-15.025-2.218-27.853.086-36.472a147.915,147.915,0,0,1,12.536,40.578" transform="translate(-491.118 -998.776)" fill="#00c8ff"/>
      <path id="Path_1392" data-name="Path 1392" d="M383.474,1164.514c7.914,15.438,13.094,29.877,15.081,40.77-8.43-9.428-17.59-22.963-25.5-38.4s-13.094-29.877-15.081-40.769c8.43,9.428,17.59,22.963,25.5,38.4" transform="translate(-312.371 -982.668)" fill="#272769"/>
      <path id="Path_1393" data-name="Path 1393" d="M1309.95,1622.911l.032.037a.44.44,0,0,1-.291.726,88.519,88.519,0,0,1-15.174.136.445.445,0,0,1-.3-.15c-4.1-4.666-7.442-9.758-8.733-9.583h-.006a.434.434,0,0,0-.23.726,40.811,40.811,0,0,1,5.706,7.961.44.44,0,0,1-.434.648c-11.508-1.283-33.765-3.062-42.815-8.054a.44.44,0,0,1-.095-.7c7.446-7.269,28.52-14.929,39.36-19.224a.44.44,0,0,1,.59.507,40.731,40.731,0,0,1-3.4,9.254.424.424,0,0,0,.423.638c1.293-.175,3.171-6.009,5.9-11.613a.444.444,0,0,1,.25-.224,88.674,88.674,0,0,1,14.645-3.853.441.441,0,0,1,.472.622l-.026.054c-2.658,5.545-5.959,7.557-6.684,9.552a.915.915,0,0,0,1.414,1.028c2.239-1.677,4.829-7.313,9.269-11.822a.45.45,0,0,1,.265-.13,89.191,89.191,0,0,1,16.3-.487.44.44,0,0,1,.235.794c-5.013,3.65-11.141,7.277-10.771,10.017.022.163.089.319.29.292,3.554-.48,7.616-7.15,13.989-10.706a.45.45,0,0,1,.268-.054,82.106,82.106,0,0,1,13.961,2.748.44.44,0,0,1,.106.8c-5.606,3.482-11.953,5.826-11.743,7.381.031.231.249.18.5.146,3.449-.466,9.84-5.784,15.528-6.848a.449.449,0,0,1,.235.019,72.635,72.635,0,0,1,12.333,5.746.442.442,0,0,1,.093.687,72.622,72.622,0,0,1-10.374,8.822.453.453,0,0,1-.213.08c-5.787.585-13.5-2.932-16.993-2.46-.248.034-.471.042-.44.275.211,1.563,7.029,2.135,13.392,4.03a.441.441,0,0,1,.106.8,82.237,82.237,0,0,1-12.751,6.342.448.448,0,0,1-.27.02c-7.131-1.709-12.849-7.109-16.421-6.627-.2.027-.224.2-.2.359.372,2.75,7.294,4.625,13.108,6.819a.44.44,0,0,1-.016.828,89.267,89.267,0,0,1-15.9,3.839.448.448,0,0,1-.288-.055c-5.482-3.165-9.478-7.915-12.083-8.939a.915.915,0,0,0-1.09,1.367c1.229,1.73,4.946,2.794,8.981,7.436" transform="translate(-1088.572 -1386.408)" fill="#272769"/>
      <path id="Path_1394" data-name="Path 1394" d="M1662.357,1119.886a16.324,16.324,0,0,1-7.549,5.953,16.715,16.715,0,0,1,10.572-15.077,16.323,16.323,0,0,1-3.024,9.124" transform="translate(-1444.018 -969.272)" fill="#272769"/>
      <path id="Path_1395" data-name="Path 1395" d="M1641.955,1223.233a12.268,12.268,0,0,1-8.667-.877,15.828,15.828,0,0,1,8.054-5.058,12.26,12.26,0,0,1,8.665.878,15.833,15.833,0,0,1-8.053,5.056" transform="translate(-1425.238 -1061.881)" fill="#272769"/>
      <path id="Path_1396" data-name="Path 1396" d="M1611.913,1287.542a11.369,11.369,0,0,1-7.678-3.6,14.19,14.19,0,0,1,8.814-2.5,11.362,11.362,0,0,1,7.677,3.6,14.2,14.2,0,0,1-8.812,2.5" transform="translate(-1399.886 -1118.19)" fill="#272769"/>
      <path id="Path_1397" data-name="Path 1397" d="M1575.307,1340.243a11.284,11.284,0,0,1-7.335-4.209,13.781,13.781,0,0,1,8.878-1.844,11.275,11.275,0,0,1,7.333,4.211,13.786,13.786,0,0,1-8.876,1.842" transform="translate(-1368.242 -1164.126)" fill="#272769"/>
      <path id="Path_1398" data-name="Path 1398" d="M1537.816,1393.215a11.369,11.369,0,0,1-7.678-3.6,14.19,14.19,0,0,1,8.814-2.5,11.359,11.359,0,0,1,7.676,3.6,14.2,14.2,0,0,1-8.812,2.5" transform="translate(-1335.227 -1210.402)" fill="#272769"/>
      <path id="Path_1399" data-name="Path 1399" d="M1504.154,1441.717a11.285,11.285,0,0,1-7.335-4.209,13.781,13.781,0,0,1,8.878-1.844,11.278,11.278,0,0,1,7.334,4.21,13.786,13.786,0,0,1-8.877,1.842" transform="translate(-1306.152 -1252.674)" fill="#272769"/>
      <path id="Path_1400" data-name="Path 1400" d="M1416.648,1252.936a.431.431,0,0,1-.062-.6l31.6-45.067a.4.4,0,1,1,.652.457l-31.6,45.067a.432.432,0,0,1-.589.147" transform="translate(-1236.058 -1053.299)" fill="#272769"/>
      <path id="Path_1401" data-name="Path 1401" d="M1601.512,1133.4a12.267,12.267,0,0,0,3.778,7.849,15.824,15.824,0,0,0,2.01-9.3,12.258,12.258,0,0,0-3.779-7.847,15.834,15.834,0,0,0-2.009,9.294" transform="translate(-1397.443 -980.916)" fill="#272769"/>
      <path id="Path_1402" data-name="Path 1402" d="M1547.9,1190.5a11.369,11.369,0,0,0,6,5.992,14.192,14.192,0,0,0-.656-9.137,11.362,11.362,0,0,0-6-5.99,14.2,14.2,0,0,0,.657,9.135" transform="translate(-1349.751 -1030.886)" fill="#272769"/>
      <path id="Path_1403" data-name="Path 1403" d="M1508.377,1246.335a11.286,11.286,0,0,0,6.457,5.462,13.78,13.78,0,0,0-1.292-8.975,11.276,11.276,0,0,0-6.458-5.459,13.787,13.787,0,0,0,1.293,8.973" transform="translate(-1314.901 -1079.746)" fill="#272769"/>
      <path id="Path_1404" data-name="Path 1404" d="M1473.8,1296.179a11.37,11.37,0,0,0,6,5.992,14.19,14.19,0,0,0-.656-9.137,11.359,11.359,0,0,0-6-5.99,14.2,14.2,0,0,0,.657,9.135" transform="translate(-1285.093 -1123.099)" fill="#272769"/>
      <path id="Path_1405" data-name="Path 1405" d="M1437.225,1347.808a11.284,11.284,0,0,0,6.457,5.462,13.778,13.778,0,0,0-1.292-8.975,11.275,11.275,0,0,0-6.458-5.459,13.787,13.787,0,0,0,1.293,8.973" transform="translate(-1252.812 -1168.293)" fill="#272769"/>
      <rect id="Rectangle_359" data-name="Rectangle 359" width="9.052" height="33.52" transform="translate(95.515 203.091)" fill="#272769"/>
      <path id="Path_1406" data-name="Path 1406" d="M731.967,1812.031a9.128,9.128,0,1,1-9.128-9.183,9.155,9.155,0,0,1,9.128,9.183" transform="translate(-622.799 -1573.2)" fill="#272769"/>
      <rect id="Rectangle_360" data-name="Rectangle 360" width="9.052" height="33.52" transform="translate(165.473 203.091)" fill="#272769"/>
      <path id="Path_1407" data-name="Path 1407" d="M1281.173,1812.031a9.128,9.128,0,1,1-9.127-9.183,9.156,9.156,0,0,1,9.127,9.183" transform="translate(-1102.046 -1573.2)" fill="#272769"/>
      <path id="Path_1408" data-name="Path 1408" d="M918.681,486.368H899.334a12.415,12.415,0,0,0-12.363,12.438V529.44h44.073V498.806a12.414,12.414,0,0,0-12.362-12.438m6.142,36.814H893.192V502.426a6.168,6.168,0,0,1,6.142-6.18h19.347a6.168,6.168,0,0,1,6.142,6.18Z" transform="translate(-773.988 -424.414)" fill="#272769"/>
      <path id="Path_1409" data-name="Path 1409" d="M702.839,859.27H625.951a19.3,19.3,0,0,1-19.3-19.3V735.85a19.3,19.3,0,0,1,19.3-19.3h76.888a19.3,19.3,0,0,1,19.3,19.3V839.97a19.3,19.3,0,0,1-19.3,19.3" transform="translate(-529.375 -625.276)" fill="#f66"/>
      <path id="Path_1410" data-name="Path 1410" d="M914.7,495.926a7.248,7.248,0,0,0-7.226-7.27h-14.6a7.248,7.248,0,0,0-7.226,7.27,2.381,2.381,0,0,1-2.374,2.388h-4.053a2.381,2.381,0,0,1-2.374-2.388v-3.62a16.075,16.075,0,0,1,16.026-16.124h14.6A16.075,16.075,0,0,1,923.5,492.306v3.62a2.381,2.381,0,0,1-2.374,2.388h-4.052a2.381,2.381,0,0,1-2.374-2.388" transform="translate(-765.154 -415.526)" fill="#ffbf00"/>
      <path id="Path_1411" data-name="Path 1411" d="M2292.8,315.526c-3.127,0-6.294,2.608-8.741,4.6-1.192-2.384-1.3-4.657-5.444-4.657-.981,0-6.556,2.82-7.471,3.166,2.01,1.288,4.952-1.853,8.315.135,2.61,1.543,1.835,6.465,2.568,7.841,2.095-4.058,8.166-7.369,12.075-7.369a6,6,0,0,1,.694.041c.693-.608,7.124,2.426,7.916,1.962-.926-1.229-7.877-5.715-9.912-5.715" transform="translate(-1981.845 -275.281)" fill="#272769"/>
      <path id="Path_1412" data-name="Path 1412" d="M2608.565,500.093c-1.564,0-3.147,1.3-4.371,2.3-.6-1.192-.652-2.328-2.722-2.328a31.967,31.967,0,0,0-3.736,1.583c1.005.644,2.476-.927,4.157.067,1.305.772.917,3.232,1.284,3.921a7.972,7.972,0,0,1,6.037-3.685,3,3,0,0,1,.348.02c.347-.3,3.562,1.213,3.958.981-.463-.614-3.938-2.857-4.955-2.857" transform="translate(-2266.835 -436.365)" fill="#272769"/>
      <path id="Path_1413" data-name="Path 1413" d="M225.183,768.664c-1.563,0-3.147,1.3-4.37,2.3-.6-1.192-.652-2.328-2.722-2.328a31.944,31.944,0,0,0-3.736,1.583c1,.644,2.476-.927,4.157.068,1.3.772.917,3.232,1.284,3.921a7.971,7.971,0,0,1,6.037-3.685,2.961,2.961,0,0,1,.347.021c.347-.3,3.562,1.213,3.958.981-.463-.615-3.938-2.857-4.956-2.857" transform="translate(-187.05 -670.724)" fill="#272769"/>
      <path id="Path_1414" data-name="Path 1414" d="M797.543,1604.211h-18.4a8.119,8.119,0,0,1-8.119-8.119v-29.818a8.119,8.119,0,0,1,8.119-8.119h18.4a8.119,8.119,0,0,1,8.119,8.119v29.818a8.119,8.119,0,0,1-8.119,8.119" transform="translate(-672.809 -1359.676)" fill="#272769"/>
      <path id="Path_1415" data-name="Path 1415" d="M709.584,1604.211h-18.4a8.119,8.119,0,0,1-8.119-8.119v-29.818a8.119,8.119,0,0,1,8.119-8.119h18.4a8.119,8.119,0,0,1,8.119,8.119v29.818a8.119,8.119,0,0,1-8.119,8.119" transform="translate(-596.055 -1359.676)" fill="#fff"/>
      <path id="Path_1416" data-name="Path 1416" d="M672.6,1661.93H611.488a8.119,8.119,0,0,1-8.119-8.119v-29.818a8.119,8.119,0,0,1,8.119-8.119H672.6a8.119,8.119,0,0,1,8.119,8.119v29.818a8.119,8.119,0,0,1-8.119,8.119" transform="translate(-526.511 -1410.043)" fill="#272769"/>
      <path id="Path_1417" data-name="Path 1417" d="M584.641,1661.93H523.528a8.119,8.119,0,0,1-8.119-8.119v-29.818a8.119,8.119,0,0,1,8.119-8.119h61.113a8.119,8.119,0,0,1,8.119,8.119v29.818a8.119,8.119,0,0,1-8.119,8.119" transform="translate(-449.756 -1410.043)" fill="#fff"/>
      <path id="Path_1418" data-name="Path 1418" d="M660.6,1694.207a15.929,15.929,0,0,1-15.929,15.93h-9.008a16.154,16.154,0,0,1-2.14-.142,15.932,15.932,0,0,1,0-31.574,16.174,16.174,0,0,1,2.14-.143h9.008a15.929,15.929,0,0,1,15.929,15.929" transform="translate(-540.791 -1464.497)" fill="#272769"/>
      <path id="Path_1419" data-name="Path 1419" d="M647.313,1695.184a13.2,13.2,0,1,1-13.789-15.787,15.873,15.873,0,0,1,13.789,15.787" transform="translate(-540.791 -1465.474)" fill="#272769"/>
      <path id="Path_1420" data-name="Path 1420" d="M661.469,1725.445a11.372,11.372,0,1,1-3.231-7.938,11.37,11.37,0,0,1,3.231,7.938" transform="translate(-557.367 -1495.735)" fill="#fff"/>
      <path id="Path_1421" data-name="Path 1421" d="M676.985,1741.362a11.369,11.369,0,0,1-19.461,7.987,12.17,12.17,0,0,1,16.23-15.925,11.327,11.327,0,0,1,3.231,7.938" transform="translate(-572.883 -1511.652)" fill="#00c8ff"/>
      <path id="Path_1422" data-name="Path 1422" d="M978.482,1681.886a3.609,3.609,0,1,1-3.609-3.609,3.609,3.609,0,0,1,3.609,3.609" transform="translate(-847.544 -1464.497)" fill="#00c8ff"/>
      <path id="Path_1423" data-name="Path 1423" d="M3034.731,553.183a.821.821,0,0,1-.57-.228.669.669,0,0,1-.251-.5q0-.593.775-.593h1.78q0-5.247-.32-13.233-.183-6.388-.365-10.039l.046-2.327v-3.012a27.775,27.775,0,0,0-.091-2.92h-1.6c-.3,0-.456-.213-.456-.639a.715.715,0,0,1,.365-.639,5.919,5.919,0,0,1,1.688-.137h1.278q.684.046,1.734.046a1.015,1.015,0,0,1,.593.16.547.547,0,0,1,.229.479.959.959,0,0,1-.137.5.447.447,0,0,1-.411.228,2.81,2.81,0,0,1-.547-.046h-1a.951.951,0,0,0-.548.091l-.091.182q0,3.559.593,14.374.548,9.994.547,14.374v1.278q-.046.593-.045,1.232h1.643q1.048,0,1.049.639a.818.818,0,0,1-.206.525.571.571,0,0,1-.434.251h-2.464q-1.1-.045-2.784-.046" transform="translate(-2647.249 -452.814)" fill="#fff"/>
      <path id="Path_1424" data-name="Path 1424" d="M3105.256,581.532l-.046-1.688q-.046-.729-.046-1.643a5.546,5.546,0,0,1,.046-.776l.046-.821a4.1,4.1,0,0,0-.183-1.1q0-3.057-.457-11.362-.456-8.031-.5-10.906a33.014,33.014,0,0,1-3.788-.137q-.913-.228-.912-.73a.861.861,0,0,1,.867-.5q1.369,0,3.97.182,2.372.229,3.97.228h.958l.958-.046q.821,0,.821.593a.483.483,0,0,1-.3.434,1.465,1.465,0,0,1-.707.16q-.913,0-1.916-.091l-1.962-.091q-.183,0-.183.137a4.34,4.34,0,0,0-.045.867q0,4.427.547,13.416.5,9.309.5,13.37a.754.754,0,0,1-.388.593,1.313,1.313,0,0,1-.753.274Z" transform="translate(-2704.608 -481.574)" fill="#fff"/>
      <path id="Path_1425" data-name="Path 1425" d="M3228.057,521.238q.091-.821.092-2.738v-.365q0-3.878.5-3.879a.868.868,0,0,1,.753.525,2.415,2.415,0,0,1,.3,1.209,13.872,13.872,0,0,1-.525,3.308q-.525,2.031-.935,2.031Z" transform="translate(-2816.864 -448.75)" fill="#fff"/>
      <path id="Path_1426" data-name="Path 1426" d="M3275.737,579.517a.98.98,0,0,1-.5-.707l.229-.365a5.351,5.351,0,0,1,.821.137,2.521,2.521,0,0,0,.821.182,2.418,2.418,0,0,0,1.78-.8,5.215,5.215,0,0,0,1.186-2.076,17.233,17.233,0,0,0,.639-4.472,14.483,14.483,0,0,0-1.917-6.753q-1.187-2.1-1.825-3.331a17.636,17.636,0,0,1-1.141-2.829,11.907,11.907,0,0,1-.593-3.605,11.526,11.526,0,0,1,.822-3.879,4.331,4.331,0,0,1,1.164-1.711,2.413,2.413,0,0,1,1.62-.662,1.976,1.976,0,0,1,1.164.411,1.122,1.122,0,0,1,.57.867c0,.244-.2.365-.593.365a1.076,1.076,0,0,1-.457-.137,1.139,1.139,0,0,0-.5-.137,1.7,1.7,0,0,0-1.232.548,3.426,3.426,0,0,0-.821,1.415,10.138,10.138,0,0,0-.547,3.1,7.308,7.308,0,0,0,.228,1.78c.031.183.061.335.092.456a1.268,1.268,0,0,1,.046.274l.274.913.228.821.365.821a3.913,3.913,0,0,0,.3.57q.159.251.3.479l.547.958q.182.274.776,1.3a22.537,22.537,0,0,1,1.1,2.167,10.868,10.868,0,0,1,.684,1.8,19.146,19.146,0,0,1,.411,2.031,21.16,21.16,0,0,1,.137,2.51,13.835,13.835,0,0,1-.593,4.107,5.781,5.781,0,0,1-2.373,3.194,3.681,3.681,0,0,1-2.008.547l-.229.091a2.6,2.6,0,0,1-.958-.388m4.609-29.365a.041.041,0,0,0-.045-.045v.045Z" transform="translate(-2858.032 -478.76)" fill="#fff"/>
      <path id="Path_1427" data-name="Path 1427" d="M3415.765,581.532l-.046-1.688q-.046-.729-.046-1.643a5.588,5.588,0,0,1,.046-.776l.046-.821a4.11,4.11,0,0,0-.182-1.1q0-3.057-.456-11.362-.457-8.031-.5-10.906a33.006,33.006,0,0,1-3.787-.137q-.914-.228-.913-.73a.861.861,0,0,1,.867-.5q1.369,0,3.97.182,2.372.229,3.97.228h.958l.958-.046q.821,0,.821.593a.483.483,0,0,1-.3.434,1.467,1.467,0,0,1-.708.16q-.913,0-1.917-.091l-1.962-.091c-.122,0-.183.046-.183.137a4.351,4.351,0,0,0-.046.867q0,4.427.548,13.416.5,9.309.5,13.37a.754.754,0,0,1-.388.593,1.312,1.312,0,0,1-.753.274Z" transform="translate(-2975.565 -481.574)" fill="#fff"/>
      <path id="Path_1428" data-name="Path 1428" d="M3528.447,583.278a1.2,1.2,0,0,0-.365.046h-.365q-1,0-1.278-.456a.65.65,0,0,1,.365-.547l.229-.228h1.323l.182-.182.091-.411.046-.548q0-2.783-.137-4.974l-.092-1.688-.091-3.331q0-1.78.136-5.339l.092-5.293a45.99,45.99,0,0,0-.228-5.293,4.8,4.8,0,0,0-1.369-.137l-.5.046a3.578,3.578,0,0,1-.593.046q-.868,0-.867-.776,0-.182.411-.365a1.774,1.774,0,0,1,.684-.182,33.257,33.257,0,0,1,3.468.182,7.357,7.357,0,0,1,2.1.411q.821.274.821.776a1.1,1.1,0,0,1-.137.365l-1.049.091a2.185,2.185,0,0,0-1.323-.274l-.228.137a11.562,11.562,0,0,1,.137,2.418q0,3.012-.045,5.43l-.092,5.43q0,2.054.182,4.974.137,3.331.137,5.019v.593a5.906,5.906,0,0,0-.046.821,3.38,3.38,0,0,0,.137,1.278l-.045.091q0,.457,1,.456a4.261,4.261,0,0,0,.684-.046h.684q1.323,0,1.323.639a.855.855,0,0,1-.274.662,1.038,1.038,0,0,1-.729.251,2.642,2.642,0,0,1-.73-.091,6.363,6.363,0,0,0-.776-.046,2.414,2.414,0,0,0-.821.228,2.1,2.1,0,0,1-.821.274q-1.051,0-1.233-.456" transform="translate(-3076.003 -483.136)" fill="#fff"/>
      <path id="Path_1429" data-name="Path 1429" d="M3641.36,582.873v-3.012q0-6.571-.274-10.267l-.137-1.689a12.848,12.848,0,0,1-.183-2.008q0-1.551.091-2.829l.091-2.829a9.5,9.5,0,0,0-.183-2.145q-.914.64-5.521,19.211l-.046.684a9.6,9.6,0,0,1-.365,1.826,1.857,1.857,0,0,1-.388.776.759.759,0,0,1-.571.274,1.325,1.325,0,0,1-1.049-.365,1.7,1.7,0,0,1-.32-1.141,43.215,43.215,0,0,0-1.163-6.389q-1.164-5.156-2.51-9.9t-1.848-5.248q-.046,1.6-.365,7.529-.64,10.5-.639,16.519l.046,1.825a.877.877,0,0,1-.958.593.969.969,0,0,1-.456-.251c-.214-.168-.32-.3-.32-.388q0-4.107.73-14.42.685-9.583.685-14.374a1.228,1.228,0,0,0-.091-.456,1.046,1.046,0,0,1-.137-.411q0-.685,1.186-.685a.814.814,0,0,1,.912.685,7.721,7.721,0,0,1,.183,1.369l.045.548a19.14,19.14,0,0,0,1.323,3.651,33.32,33.32,0,0,1,1.324,3.422q.274,1.1.5,1.78.729,2.647.958,3.924l.593,1.187q.136.684.548,2.236.411,1.735.594,2.829a12.871,12.871,0,0,1,.183,2.1q.5-.775,2.852-9.332t2.761-10.929a.874.874,0,0,0,.068-.251c.015-.106.038-.251.069-.433a18.017,18.017,0,0,1,.411-1.78q.364-.912,1.095-.913a1.362,1.362,0,0,1,.73.274q.412.274.411.548,0,19.029.593,20.124v2.373q-.046,1.05-.045,2.418a22.191,22.191,0,0,0,.319,4.381.294.294,0,0,1,.069.137c.015.061.038.137.069.228a1.711,1.711,0,0,1,.045.411,1.96,1.96,0,0,1-.3,1,.842.842,0,0,1-.708.5q-.913,0-.912-2.92m-.594-25.052h-.045l-.092.046.137.046Z" transform="translate(-3162.627 -482.823)" fill="#fff"/>
      <path id="Path_1430" data-name="Path 1430" d="M3811.782,583.369v-.593a2.842,2.842,0,0,0,.046-.548l-.182-.183a5.244,5.244,0,0,0,.366-1.871q0-1.049-.137-3.012l-.092-3.012q0-2.281.137-6.845.182-4.061.183-6.891l-.091-2.738q-.093-1.232-.092-2.738a1.289,1.289,0,0,1,.32-.981,1.441,1.441,0,0,1,1-.3.987.987,0,0,1,.73.274,11.134,11.134,0,0,0,1.324.182,10.043,10.043,0,0,1,1.962.411c.577.182.868.411.868.684,0,.3-.291.609-.868.913a13.8,13.8,0,0,0-3.7-.867l-.228.274q.045.411.046,1.962,0,1.963-.092,3.514-.045,1.6-.045,3.559,0,1.278.639,1.278l.73-.046a6.366,6.366,0,0,1,.776-.046q1.78,0,1.78.821a1.489,1.489,0,0,1-.228.844.769.769,0,0,1-.685.342,1.419,1.419,0,0,1-1.05-.365l-1.46-.228h-.228l-.229.228v.137q.092.776.092,3.6,0,1.78-.046,3.24l-.046,3.24q0,1.78.137,3.651a1.9,1.9,0,0,0,.457,1.392,2.431,2.431,0,0,0,1.506.342l.822-.046a8.406,8.406,0,0,1,.913-.046q1.322,0,1.323.593,0,.822-2.008.821H3812.7q-.821,0-.913-.958" transform="translate(-3326.115 -483.136)" fill="#fff"/>
      <path id="Path_1431" data-name="Path 1431" d="M3949.674,581.532l-.046-1.688q-.046-.729-.046-1.643a5.588,5.588,0,0,1,.046-.776l.046-.821a4.1,4.1,0,0,0-.183-1.1q0-3.057-.456-11.362-.457-8.031-.5-10.906a33.006,33.006,0,0,1-3.787-.137q-.914-.228-.913-.73a.862.862,0,0,1,.867-.5q1.369,0,3.97.182,2.372.229,3.97.228h.958l.959-.046q.821,0,.821.593a.483.483,0,0,1-.3.434,1.464,1.464,0,0,1-.707.16q-.914,0-1.917-.091l-1.962-.091c-.122,0-.183.046-.183.137a4.351,4.351,0,0,0-.046.867q0,4.427.548,13.416.5,9.309.5,13.37a.754.754,0,0,1-.387.593,1.315,1.315,0,0,1-.754.274Z" transform="translate(-3441.464 -481.574)" fill="#fff"/>
      <path id="Path_1432" data-name="Path 1432" d="M4059.47,566.558v-1.6q0-12.732,3.285-12.732a2.187,2.187,0,0,1,.639.137,12.517,12.517,0,0,0,2.875.639q.866.183,1.734,1.78a13.286,13.286,0,0,1,1.437,4.335,31.516,31.516,0,0,1,.479,5.521l-.091.228q0,1.506.045,2.692l.046,2.738q0,2.327-.182,4.2a24.593,24.593,0,0,1-.913,4.883,9.314,9.314,0,0,1-.936,2.053,4.863,4.863,0,0,1-1.3,1.369,2.883,2.883,0,0,1-1.78.548q-5.339,0-5.338-16.793m7.8,12.96a20.6,20.6,0,0,0,1.05-5.2q.181-2.738.182-4.381,0-1.825-.274-5.385-.229-3.97-.228-5.384l-.183-.365.091-.228a5.541,5.541,0,0,0-1.117-3.468,3.326,3.326,0,0,0-2.715-1.46,2.3,2.3,0,0,0-2.51,2.008q-.092.685-.183,1.962a25.26,25.26,0,0,1-.273,4.609q0,.684-.137,2.145l-.091,2.145q0,1,.045,1.78l.046,1.825a38.337,38.337,0,0,0,.365,4.928,30.2,30.2,0,0,0,.639,3.468,7.66,7.66,0,0,0,1.05,2.419,1.925,1.925,0,0,0,1.6,1.1q1.78,0,2.646-2.51" transform="translate(-3542.371 -481.886)" fill="#fff"/>
      <path id="Path_1433" data-name="Path 1433" d="M3023.948,946.575a6.284,6.284,0,0,1-.774-3.233q0-3.005.364-7.376l.182-2.368.182-4.826q0-3.187-.637-14.206t-.637-14.206c0-.182.014-.531.045-1.047s.045-1.321.045-2.414q.089-1.82.091-4.462,0-6.646-.911-8.469a21.027,21.027,0,0,0-2.367.273l-2.55.182a3.4,3.4,0,0,1-2.094-.683,2.12,2.12,0,0,1-.911-1.776q0-1.092,2.186-1.912,3.187-1.093,10.837-1.548,3.095-.181,3.734-.182a3.138,3.138,0,0,1,2,.729,2.345,2.345,0,0,1,.137,3.6,2.854,2.854,0,0,1-1.958.683l-1.639-.091a13.5,13.5,0,0,0-1.639-.091h-.91a110.668,110.668,0,0,1,.637,11.2l-.091,5.828q-.092,2.642-.091,5.919,0,4.371.364,10.472.454,7.56.455,10.472,0,3.462.365,8.2.363,4.828.364,8.2,0,4.463-2.641,4.462a2.381,2.381,0,0,1-2.14-1.32" transform="translate(-2630.053 -766.442)" fill="#fff"/>
      <path id="Path_1434" data-name="Path 1434" d="M3236.846,943.837v-.273a64.453,64.453,0,0,0-1.639-10.746q-1.366-5.918-4.007-14.3-2-6.283-3.369-11.292v35.879a3.65,3.65,0,0,1-.5,2.14,2.307,2.307,0,0,1-1.958.683,2.25,2.25,0,0,1-1.73-.683,2.5,2.5,0,0,1-.637-1.776v-.728l.182-26.773q.182-11.837.182-26.682v-11.2a1.969,1.969,0,0,1,.456-1.5,3.053,3.053,0,0,1,1.912-.41,10.058,10.058,0,0,1,4.189.865,9.614,9.614,0,0,1,3.278,2.413,15.537,15.537,0,0,1,3.642,7.649,21.6,21.6,0,0,1,.365,4.189,22.161,22.161,0,0,1-.228,3.005q-.229,1.639-.319,2.095a22.957,22.957,0,0,1-.819,2.732q-.639,1.823-.82,2.368l-1.093,2.55-.91,2.368a48.478,48.478,0,0,0,1.138,8.287q1.046,5.009,2.322,9.289.909,3,3.278,10.017l2.641,8.014v.182a11.03,11.03,0,0,1-.273,2.641,1.7,1.7,0,0,1-1.913,1.457q-1.731,0-3.369-2.459m-6.1-44.257,1.367-7.832a6.979,6.979,0,0,0,.091-1.275,22.323,22.323,0,0,0-1-6.1,9.556,9.556,0,0,0-1.411-2.777,2.707,2.707,0,0,0-1.776-1.229l-.182,9.107q-.273,6.1-.273,9.471,0,3.189.091,4.189a44.558,44.558,0,0,0,3.1-3.552" transform="translate(-2812.455 -764.569)" fill="#fff"/>
      <path id="Path_1435" data-name="Path 1435" d="M3430.961,949.206a2.2,2.2,0,0,1-.683-1.821V935.455a12.948,12.948,0,0,0-4.463-1.457,48.709,48.709,0,0,0-6.193-.82,15.464,15.464,0,0,0-1.456,4.644l-.365,1.821q-.092.638-.547,2.823a31.885,31.885,0,0,1-1,3.779,13.507,13.507,0,0,1-1.093,2.5q-3.462,0-4.007-1.821,1-1.456,2.277-8.56l3.005-16.665q2-11.837,3.688-20.216a115.6,115.6,0,0,1,3.6-14.024q2.094-6.283,4.007-6.283a4.919,4.919,0,0,1,2.914.729q0,3.643,1.73,17.575a171.229,171.229,0,0,1,1.821,18.668,134.855,134.855,0,0,0,1,13.842q.909,9.2.911,14.661,0,3.1-3.005,3.1a3.41,3.41,0,0,1-2.14-.546m-.774-19.305q-.274-4.006-.911-9.926-2.1-20.579-2.095-25.225v-.729q-.911.912-2.5,8.241t-2.959,15.709a110.512,110.512,0,0,0-1.458,11.11,29.37,29.37,0,0,0,8.1,1.093,7.79,7.79,0,0,0,1.822-.273" transform="translate(-2976.638 -768.936)" fill="#fff"/>
      <path id="Path_1436" data-name="Path 1436" d="M3645.287,942.19q-2.369-9.835-6.466-35.606-4.555-27.5-5.555-32.692a2.169,2.169,0,0,1,2.459-1.73q1.547,0,3.825,11.656,2.367,11.747,4.644,26.591l2.459,16.118q1.455-10.927,2.276-16.391,1.729-12.567,2.55-20.808t.819-15.617a4.01,4.01,0,0,1,3.278-1.821l1.913,1-1.366,12.294q-.457,5.647-2.277,20.489l-.82,6.01q-1,8.014-2,15.117a109.123,109.123,0,0,1-2.55,14.3q-.546,2.094-1.092,2.094a2.586,2.586,0,0,1-2.094-1" transform="translate(-3170.457 -760.827)" fill="#fff"/>
      <path id="Path_1437" data-name="Path 1437" d="M3886.92,947.348q-1.55-.454-1.548-2.55V891.891a29.376,29.376,0,0,0-.547-4.644,21.908,21.908,0,0,1-.637-4.644v-.273a20.454,20.454,0,0,1,2.277-3.278,20.614,20.614,0,0,0,3.369-.364,18.363,18.363,0,0,1,3.369-.364,5.213,5.213,0,0,1,2.823.865,2.455,2.455,0,0,1,1.366,2.049q0,2.732-4.189,2.732h-1.275a7.956,7.956,0,0,0-1.275-.091,3.131,3.131,0,0,0-1,.091q0,3.1.364,7.467l.182,2.55.182,5.009q0,1.731-.273,5.281l-.182,5.1,1.275-.273a10.9,10.9,0,0,1,3-.546,2.6,2.6,0,0,1,1.821.774,2.382,2.382,0,0,1,.82,1.776,3.072,3.072,0,0,1-.683,1.958,2.071,2.071,0,0,1-1.685.865l-1.093-.091H3892.2a2.419,2.419,0,0,0-1.912.637v28.139l5.1-.273q5.191,0,5.191,2.368v.364a4.031,4.031,0,0,1-2,1.776,9.713,9.713,0,0,1-2.823.865l-3.006.091h-2.823a8.946,8.946,0,0,1-3-.455" transform="translate(-3389.416 -766.441)" fill="#fff"/>
      <path id="Path_1438" data-name="Path 1438" d="M4067.051,941.155a2.674,2.674,0,0,1-.956-2.049,7.018,7.018,0,0,1,.364-2,10.02,10.02,0,0,0,.273-1.912q0-8.1-.911-31.144-.912-19.67-.911-31.053a1.6,1.6,0,0,1,.637-1.32,2.432,2.432,0,0,1,1.549-.5,2.7,2.7,0,0,1,1.912.774,2.475,2.475,0,0,1,.819,1.867q0,5.464.546,16.391.455,12.112.456,16.391l.091,1.093v2.185q.273,7.923.273,23.677v2.367h7.012q1.912,1.366,1.912,2.732a2.6,2.6,0,0,1-.683,1.776,2.071,2.071,0,0,1-1.594.774,5.065,5.065,0,0,1-1-.182l-.364-.091a11.637,11.637,0,0,1-1.73.091H4073.2a10.528,10.528,0,0,0-1.457-.091,3.308,3.308,0,0,1-4.689.228" transform="translate(-3547.119 -760.203)" fill="#fff"/>
      <path id="Path_1439" data-name="Path 1439" d="M2812.167,1758.192H2795.35l-2.43-3.8,12.854.746,17.961-4.543Z" transform="translate(-2437.155 -1527.604)" fill="#272769"/>
      <path id="Path_1440" data-name="Path 1440" d="M2884.224,1416.656v42.537l23.929-2.856Z" transform="translate(-2516.829 -1236.202)" fill="#ebf1f5"/>
      <path id="Path_1441" data-name="Path 1441" d="M2762.322,1568.779v25.5l-14.8-2.856Z" transform="translate(-2397.537 -1368.947)" fill="#ebf1f5"/>
      <path id="Path_1442" data-name="Path 1442" d="M2815.707,1382.061l-10.081,4.407,10.081-2.088Z" transform="translate(-2448.242 -1206.013)" fill="#f66"/>
    </g>
  </g>
</svg>
