<?xml version="1.0" encoding="utf-8"?>
<!-- Generator: Adobe Illustrator 14.0.0, SVG Export Plug-In . SVG Version: 6.00 Build 43363)  -->
<!DOCTYPE svg PUBLIC "-//W3C//DTD SVG 1.1//EN" "http://www.w3.org/Graphics/SVG/1.1/DTD/svg11.dtd">
<svg version="1.1" xmlns="http://www.w3.org/2000/svg" xmlns:xlink="http://www.w3.org/1999/xlink" x="0px" y="0px" width="250px"
	 height="250px" viewBox="0 0 250 250" enable-background="new 0 0 250 250" xml:space="preserve">
<g id="Layer_1">
	<g>
		<defs>
			<path id="SVGID_1_" d="M174.735,44.502c-13.284-13.396-30.944-20.776-49.731-20.776c-18.786,0-36.443,7.38-49.726,20.776
				c-24.583,24.791-27.637,71.433-6.615,99.695l56.341,82.077l56.26-81.964C202.377,115.935,199.316,69.292,174.735,44.502z"/>
		</defs>
		<clipPath id="SVGID_2_">
			<use xlink:href="#SVGID_1_"  overflow="visible"/>
		</clipPath>
		<path clip-path="url(#SVGID_2_)" fill="#F69220" d="M231.864,113.269c0,51.879-42.063,93.935-93.939,93.935
			c-51.88,0-93.936-42.056-93.936-93.935c0-51.88,42.055-93.937,93.936-93.937C189.801,19.333,231.864,61.389,231.864,113.269z"/>
		<path clip-path="url(#SVGID_2_)" fill="#F05A24" d="M324.334,162.289c0,62.935-66.108,113.959-147.655,113.959
			c-81.542,0-147.647-45.942-147.647-108.877c0-62.938,66.105-119.036,147.647-119.036
			C258.226,48.335,324.334,99.357,324.334,162.289z"/>
		<path opacity="0.73" clip-path="url(#SVGID_2_)" fill="#D21C5C" d="M-44.974,243.089c0-80.626,64.944-144.266,153.284-144.266
			c88.335,0,152.646,63.64,152.646,144.266"/>
		<path clip-path="url(#SVGID_2_)" fill="#9D1E5F" d="M152.318,244.314c0,72.432-52.667,131.155-104.095,131.155
			c-58.201,0-105.377-58.724-105.377-131.155c0-72.44,45.909-128.62,104.106-128.62
			C105.155,115.694,152.318,171.874,152.318,244.314z"/>
		<path clip-path="url(#SVGID_2_)" fill="#FCB912" d="M29.552,58.943c0,0,40.28,23.118,72.81-8.604
			c31.358-30.583,57.804-18.533,57.804-18.533L143.619,8.86L89.348,15.92L61.327,32.027"/>
		<g clip-path="url(#SVGID_2_)">
			<path fill="#FFFFFF" d="M229.723,196.616c0,0,2.285-19.959-14.168-28.033l-39.149-19.646l-26.197-13.404l-2.899-2.436
				c0,0-5.021-2.744-1.979-12.953l3.199-16.451c0,0,1.981-9.291-3.658-15.688l-15.838-30.771c0,0-3.809-8.378-3.809-1.218
				c0,0,3.199,51.794,1.977,65.96c0,0-2.437,14.319,10.815,25.285c13.255,10.969,36.258,33.668,51.793,43.87l13.713,7.77
				c0,0,4.721,1.83,13.555,1.982l8.381,0.302C225.458,201.184,230.332,202.253,229.723,196.616z"/>
			<path fill="#FFFFFF" d="M20.276,196.616c0,0-2.286-19.959,14.168-28.033l39.151-19.646l26.199-13.404l2.893-2.436
				c0,0,5.03-2.744,1.982-12.953l-3.198-16.451c0,0-1.983-9.291,3.653-15.688l15.844-30.771c0,0,3.809-8.378,3.809-1.218
				c0,0-3.2,51.794-1.982,65.96c0,0,2.436,14.319-10.816,25.285c-13.251,10.969-36.253,33.668-51.79,43.87l-13.714,7.77
				c0,0-4.717,1.83-13.554,1.982l-8.377,0.302C24.543,201.184,19.667,202.253,20.276,196.616z"/>
		</g>
	</g>
</g>
<g id="Layer_2" display="none">
	<g display="inline">
		<path fill="#D11D5B" d="M39.406,211.298c3.492,0,5.781-1.443,6.984-3.975l2.831-6.02c0.782-1.688,2.468-2.77,4.215-2.77h5.539
			c1.566,0,1.747,1.203,1.024,2.77l-3.794,8.008c-1.265,2.648-3.672,4.758-6.263,5.299c2.47,0.725,4.456,2.408,6.263,5.299
			l4.998,8.068c0.963,1.566,0.541,2.771-1.023,2.771H54.64c-1.926,0-3.552-1.205-4.515-2.771l-3.734-6.082
			c-1.625-2.648-4.274-3.914-6.984-3.914v10.961c0,1.021-0.783,1.807-1.806,1.807h-6.563c-1.023,0-1.807-0.785-1.807-1.807v-28.602
			c0-1.025,0.783-1.807,1.807-1.807h6.563c1.022,0,1.806,0.781,1.806,1.807V211.298z"/>
		<path fill="#D11D5B" d="M63.551,191.368c0-2.107,1.266-3.371,3.371-3.371h3.674c2.108,0,3.372,1.264,3.372,3.371v1.021
			c0,2.111-1.264,3.373-3.372,3.373h-3.674c-2.105,0-3.371-1.262-3.371-3.373V191.368z M65.478,230.749
			c-1.023,0-1.807-0.785-1.807-1.807v-27.881c0-1.023,0.783-1.805,1.807-1.805h6.563c1.023,0,1.807,0.781,1.807,1.805v27.881
			c0,1.021-0.783,1.807-1.807,1.807H65.478z"/>
		<path fill="#EF6725" d="M112.505,214.61c0,11.08-6.382,16.74-17.763,16.74s-17.764-5.66-17.764-16.74s6.383-16.678,17.764-16.678
			S112.505,203.53,112.505,214.61z M102.329,214.61c0-7.104-2.47-9.996-7.587-9.996c-5.119,0-7.588,2.893-7.588,9.996
			c0,7.105,2.469,10.057,7.588,10.057C99.859,224.667,102.329,221.716,102.329,214.61z"/>
		<path fill="#EF6725" d="M137.071,212.081c0-4.996-1.866-7.043-5.117-7.043c-2.53,0-4.396,1.623-6.264,4.215v19.689
			c0,1.021-0.782,1.807-1.804,1.807h-6.564c-1.024,0-1.807-0.785-1.807-1.807v-28.602c0-1.025,0.782-1.807,1.807-1.807h6.564
			c1.021,0,1.804,0.781,1.804,1.807v1.865c2.35-2.287,4.878-4.273,9.094-4.273c4.817,0,8.07,1.924,10.357,5.658
			c3.373-3.492,7.046-5.658,11.199-5.658c7.347,0,12.463,4.154,12.463,14.148v16.861c0,1.021-0.782,1.807-1.806,1.807h-6.563
			c-1.024,0-1.807-0.785-1.807-1.807v-16.861c0-4.996-1.867-7.043-5.118-7.043c-1.985,0-4.336,1.623-6.442,4.514
			c0.121,0.844,0.181,1.686,0.181,2.529v16.861c0,1.021-0.783,1.807-1.807,1.807h-6.563c-1.025,0-1.808-0.785-1.808-1.807V212.081z"
			/>
		<path fill="#EF6725" d="M207.342,214.61c0,11.08-6.385,16.74-17.765,16.74c-11.382,0-17.762-5.66-17.762-16.74
			s6.38-16.678,17.762-16.678C200.957,197.933,207.342,203.53,207.342,214.61z M197.164,214.61c0-7.104-2.467-9.996-7.587-9.996
			c-5.117,0-7.587,2.893-7.587,9.996c0,7.105,2.47,10.057,7.587,10.057C194.697,224.667,197.164,221.716,197.164,214.61z"/>
		<path fill="#EF6725" d="M210.351,191.368c0-2.107,1.265-3.371,3.372-3.371h3.672c2.11,0,3.375,1.264,3.375,3.371v1.021
			c0,2.111-1.265,3.373-3.375,3.373h-3.672c-2.107,0-3.372-1.262-3.372-3.373V191.368z M212.278,230.749
			c-1.024,0-1.807-0.785-1.807-1.807v-27.881c0-1.023,0.782-1.805,1.807-1.805h6.563c1.023,0,1.807,0.781,1.807,1.805v27.881
			c0,1.021-0.783,1.807-1.807,1.807H212.278z"/>
	</g>
</g>
</svg>
