<svg id="checking-mark-circle" xmlns="http://www.w3.org/2000/svg" width="38.973" height="38.967" viewBox="0 0 38.973 38.967">
  <g id="Group_111" data-name="Group 111" transform="translate(0.001)">
    <path id="Exclusion_1" data-name="Exclusion 1" d="M19.484,38.967A19.483,19.483,0,1,1,38.973,19.483,19.506,19.506,0,0,1,19.484,38.967ZM9.879,18.3a1.328,1.328,0,0,0-.92,2.291l6.945,6.68a1.316,1.316,0,0,0,.926.375h.045A1.326,1.326,0,0,0,17.8,27.2L30.055,13.581a1.337,1.337,0,0,0-.109-1.881,1.256,1.256,0,0,0-.879-.356,1.306,1.306,0,0,0-.977.442L16.764,24.4l-5.971-5.731A1.311,1.311,0,0,0,9.879,18.3Z" transform="translate(-0.001)" fill="#27d839"/>
  </g>
</svg>
