<svg id="_1" data-name="1" xmlns="http://www.w3.org/2000/svg" width="30" height="28.618" viewBox="0 0 30 28.618">
  <path id="Forma_1" data-name="Forma 1" d="M4.688,28.618A4.683,4.683,0,0,1,0,23.848V6.678a4.683,4.683,0,0,1,4.688-4.77h3.75V.954a.938.938,0,1,1,1.875,0v.954h9.374V.954a.938.938,0,1,1,1.875,0v.954h3.75A4.683,4.683,0,0,1,30,6.678V23.848a4.683,4.683,0,0,1-4.687,4.77Zm-2.813-4.77A2.909,2.909,0,0,0,4.688,26.71H25.312a2.909,2.909,0,0,0,2.812-2.862v-12.4H1.875Zm0-17.171V9.54H28.124V6.678a2.909,2.909,0,0,0-2.812-2.861h-3.75V4.77a.937.937,0,1,1-1.875,0V3.816H10.313V4.77a.938.938,0,1,1-1.875,0V3.816H4.688A2.909,2.909,0,0,0,1.875,6.678Zm20.249,16.6a2.08,2.08,0,0,1-.562-1.336,1.748,1.748,0,0,1,.562-1.335,1.792,1.792,0,0,1,2.625,0,1.867,1.867,0,0,1,0,2.671,1.791,1.791,0,0,1-2.625,0Zm-5.625,0a1.867,1.867,0,0,1,0-2.671,1.792,1.792,0,0,1,2.625,0,1.867,1.867,0,0,1,0,2.671,1.791,1.791,0,0,1-2.625,0Zm-5.625,0a1.867,1.867,0,0,1,0-2.671,1.792,1.792,0,0,1,2.625,0,1.867,1.867,0,0,1,0,2.671,1.791,1.791,0,0,1-2.625,0Zm-5.625,0a2.081,2.081,0,0,1-.562-1.336A1.748,1.748,0,0,1,5.25,20.6a1.792,1.792,0,0,1,2.625,0,1.867,1.867,0,0,1,0,2.671,1.69,1.69,0,0,1-1.313.572A1.689,1.689,0,0,1,5.25,23.276Zm16.874-5.723a2.083,2.083,0,0,1-.562-1.336,2.083,2.083,0,0,1,.562-1.336,1.792,1.792,0,0,1,2.625,0,2.08,2.08,0,0,1,.562,1.336,1.746,1.746,0,0,1-.562,1.336,1.793,1.793,0,0,1-2.625,0Zm-5.625,0a2.083,2.083,0,0,1-.562-1.336,2.083,2.083,0,0,1,.562-1.336,1.792,1.792,0,0,1,2.625,0,2.083,2.083,0,0,1,.562,1.336,1.748,1.748,0,0,1-.562,1.336,1.793,1.793,0,0,1-2.625,0Zm-5.625,0a2.083,2.083,0,0,1-.562-1.336,2.083,2.083,0,0,1,.562-1.336,1.792,1.792,0,0,1,2.625,0,2.083,2.083,0,0,1,.562,1.336,2.084,2.084,0,0,1-.562,1.336,1.793,1.793,0,0,1-2.625,0Zm-5.625,0a1.868,1.868,0,0,1,0-2.672,1.792,1.792,0,0,1,2.625,0,2.083,2.083,0,0,1,.562,1.336,2.083,2.083,0,0,1-.562,1.336,1.689,1.689,0,0,1-1.313.572A1.688,1.688,0,0,1,5.25,17.553Z" fill="#fff"/>
  <path id="Op_component_3" data-name="Op component 3" d="M897.66,446.869a1.689,1.689,0,0,0,1.313-.572,1.868,1.868,0,0,0,0-2.672,1.792,1.792,0,0,0-2.625,0,1.867,1.867,0,0,0,0,2.672A1.689,1.689,0,0,0,897.66,446.869Z" transform="translate(-891.098 -428.744)" fill="#403f3f"/>
</svg>
