<svg xmlns="http://www.w3.org/2000/svg" width="40" height="38.157" viewBox="0 0 40 38.157">
  <path id="Forma_1" data-name="Forma 1" d="M898.449,470.447a6.245,6.245,0,0,1-6.251-6.359V441.194a6.245,6.245,0,0,1,6.251-6.359h5v-1.273a1.25,1.25,0,1,1,2.5,0v1.273h12.5v-1.273a1.25,1.25,0,1,1,2.5,0v1.273h5a6.244,6.244,0,0,1,6.25,6.359v22.894a6.244,6.244,0,0,1-6.25,6.359Zm-3.75-6.359a3.879,3.879,0,0,0,3.75,3.816h27.5a3.878,3.878,0,0,0,3.749-3.816V447.553h-35Zm0-22.894v3.816h35v-3.816a3.878,3.878,0,0,0-3.749-3.815h-5v1.272a1.25,1.25,0,1,1-2.5,0v-1.272h-12.5v1.272a1.25,1.25,0,1,1-2.5,0v-1.272h-5A3.878,3.878,0,0,0,894.7,441.194Zm27,22.131a2.774,2.774,0,0,1-.75-1.781,2.331,2.331,0,0,1,.75-1.78,2.389,2.389,0,0,1,3.5,0,2.49,2.49,0,0,1,0,3.561,2.388,2.388,0,0,1-3.5,0Zm-7.5,0a2.49,2.49,0,0,1,0-3.561,2.389,2.389,0,0,1,3.5,0,2.49,2.49,0,0,1,0,3.561,2.388,2.388,0,0,1-3.5,0Zm-7.5,0a2.49,2.49,0,0,1,0-3.561,2.389,2.389,0,0,1,3.5,0,2.49,2.49,0,0,1,0,3.561,2.388,2.388,0,0,1-3.5,0Zm-7.5,0a2.774,2.774,0,0,1-.75-1.781,2.331,2.331,0,0,1,.75-1.78,2.389,2.389,0,0,1,3.5,0,2.489,2.489,0,0,1,0,3.561,2.388,2.388,0,0,1-3.5,0Zm22.5-7.631a2.491,2.491,0,0,1,0-3.562,2.389,2.389,0,0,1,3.5,0,2.773,2.773,0,0,1,.75,1.781,2.327,2.327,0,0,1-.75,1.781,2.39,2.39,0,0,1-3.5,0Zm-7.5,0a2.491,2.491,0,0,1,0-3.562,2.389,2.389,0,0,1,3.5,0,2.778,2.778,0,0,1,.75,1.781,2.331,2.331,0,0,1-.75,1.781,2.39,2.39,0,0,1-3.5,0Zm-7.5,0a2.491,2.491,0,0,1,0-3.562,2.389,2.389,0,0,1,3.5,0,2.491,2.491,0,0,1,0,3.562,2.39,2.39,0,0,1-3.5,0Zm-7.5,0a2.491,2.491,0,0,1,0-3.562,2.389,2.389,0,0,1,3.5,0,2.49,2.49,0,0,1,0,3.562,2.39,2.39,0,0,1-3.5,0Z" transform="translate(-892.199 -432.29)"/>
</svg>
