<svg id="ICONS" xmlns="http://www.w3.org/2000/svg" width="42" height="42" viewBox="0 0 42 42">
  <g id="Component_366_3" data-name="Component 366 – 3">
    <g id="Ellipse_2" data-name="Ellipse 2" fill="#fff" stroke="#000" stroke-width="2">
      <circle cx="21" cy="21" r="21" stroke="none"/>
      <circle cx="21" cy="21" r="20" fill="none"/>
    </g>
    <path id="Path_53" data-name="Path 53" d="M.037-17.609Q.743-18.637,1.1-19.157l.359-.52H14.618q-.669,1-1,1.505l-.328.5H9.848a3.4,3.4,0,0,1,.929,1.734h3.89q-.694,1.041-1.034,1.555l-.341.514q-1.251.025-1.877.025H10.79q-.025.471-.037.644l-.019.223-.006.074a2.683,2.683,0,0,1-1.065,1.821,7.832,7.832,0,0,1-1.276.731,15.491,15.491,0,0,1-1.864.694q-.849.248-2.224.508,3.815,4.385,5.723,6.566L11.929-.4H8.238Q4.559-4.565,2.713-6.658L.867-8.752v-2.007a9.72,9.72,0,0,0,4.918-.458,3.157,3.157,0,0,0,2.118-2.6q-3.952-.037-5.928-.05L0-13.88Q.694-14.9,1.047-15.41l.353-.514q3.047.025,4.583.025H7.519q0-.186-.359-.545a3.616,3.616,0,0,0-.718-.57,7.247,7.247,0,0,0-2.354-.595H.037Z" transform="translate(13.666 30.638)"/>
  </g>
</svg>
