<svg xmlns="http://www.w3.org/2000/svg" xmlns:xlink="http://www.w3.org/1999/xlink" width="42" height="42" viewBox="0 0 42 42">
  <defs>
    <clipPath id="clip-path">
      <rect id="Rectangle_344" data-name="Rectangle 344" width="42" height="42" transform="translate(0.4 0.4)" fill="none"/>
    </clipPath>
  </defs>
  <g id="Group_1865" data-name="Group 1865" transform="translate(-0.4 -0.4)" clip-path="url(#clip-path)">
    <path id="Path_48" data-name="Path 48" d="M38.026,46.975H28.113a5.344,5.344,0,0,1-5.338-5.338,3.817,3.817,0,0,0-3.813-3.813H11.338a5.338,5.338,0,0,1,0-10.675H31.163a3.813,3.813,0,0,0,0-7.625H6.763a.763.763,0,0,1,0-1.525h24.4a5.338,5.338,0,0,1,0,10.675H11.338a3.813,3.813,0,0,0,0,7.625h7.625A5.344,5.344,0,0,1,24.3,41.638a3.817,3.817,0,0,0,3.813,3.813h9.913a.763.763,0,1,1,0,1.525" transform="translate(-1.375 -4.225)"/>
    <path id="Path_49" data-name="Path 49" d="M5.338,15.25a.762.762,0,0,1-.54-.224c-.2-.2-4.8-4.869-4.8-9.688a5.338,5.338,0,1,1,10.675,0c0,4.82-4.6,9.492-4.8,9.688a.762.762,0,0,1-.54.224m0-13.725A3.817,3.817,0,0,0,1.525,5.338c0,3.289,2.646,6.685,3.812,8.022C6.5,12.02,9.15,8.619,9.15,5.338A3.817,3.817,0,0,0,5.338,1.525" transform="translate(0.05 0.05)"/>
    <path id="Path_50" data-name="Path 50" d="M6.288,8.575A2.288,2.288,0,1,1,8.575,6.288,2.29,2.29,0,0,1,6.288,8.575m0-3.05a.763.763,0,1,0,.763.763.763.763,0,0,0-.763-.763" transform="translate(-0.9 -0.9)"/>
    <path id="Path_51" data-name="Path 51" d="M46.1,50.3a.763.763,0,0,1-.588-.277C45.288,49.751,40,43.3,40,38.1a6.1,6.1,0,1,1,12.2,0c0,5.2-5.288,11.651-5.512,11.923a.763.763,0,0,1-.588.277m0-16.775A4.58,4.58,0,0,0,41.525,38.1c0,3.688,3.222,8.384,4.575,10.193,1.353-1.809,4.575-6.5,4.575-10.193A4.58,4.58,0,0,0,46.1,33.525" transform="translate(-9.449 -7.55)"/>
    <path id="Path_52" data-name="Path 52" d="M47.05,42.1a3.05,3.05,0,1,1,3.05-3.05,3.053,3.053,0,0,1-3.05,3.05m0-4.575a1.525,1.525,0,1,0,1.525,1.525,1.527,1.527,0,0,0-1.525-1.525" transform="translate(-10.399 -8.5)"/>
  </g>
</svg>
